<svg xmlns="http://www.w3.org/2000/svg" viewBox="0 0 123.01563 39.89252" class="logo--ks"><defs><style>.a{opacity:0.4;}.b{fill:#1c75bc;}.c{font-size:17px;fill:#231f20;font-family:Poppins-Bold, Poppins;font-weight:700;}</style></defs><g class="a"><path class="b" d="M81.0332,21.2525c-.05309.3825-.12629.76367-.15172,1.148-.01517.22928-.08047.358-.31407.40316-1.70335.32961-3.40513.66741-5.11.98875a.35835.35835,0,0,1-.30023-.14526,4.25819,4.25819,0,0,0-3.57271-2.41436c-.10964-.01068-.24669-.19772-.29319-.33007a36.21648,36.21648,0,0,0-2.32691-5.30064,33.62843,33.62843,0,0,0-3.7795-5.565.57032.57032,0,0,1-.11692-.619,7.78692,7.78692,0,0,0,.2903-1.59267.51179.51179,0,0,1,.36241-.53325,31.17278,31.17278,0,0,1,8.53127-2.1419.58236.58236,0,0,1,.40054.15369,19.54756,19.54756,0,0,1,5.81562,9.929c.24,1.00453.33029,2.04475.49172,3.0682.016.10122.04856.19982.07342.29964Z"/><path class="b" d="M59.745,39.89252c-.74255-.1052-1.48662-.20087-2.227-.31929-.4179-.06683-.82982-.17111-1.3414-.279.689-.87459,1.31364-1.71457,1.98675-2.51371a30.52738,30.52738,0,0,1,10.2533-7.90523.6149.6149,0,0,1,.44169.03128c.20069.08336.36511.27658.5686.32634.52517.12845.64786.46334.66526.95576A32.90312,32.90312,0,0,1,69.84087,35.98c-.08176.57726-.16549,1.1558-.29086,1.72436a.71332.71332,0,0,1-.34031.44425,19.09491,19.09491,0,0,1-6.51691,1.6708,1.73929,1.73929,0,0,0-.29651.07316Z"/><path class="b" d="M66.5039,26.502A34.21907,34.21907,0,0,0,53.27742,38.38081c-.9431-.5132-1.89255-.98431-2.79566-1.53188a19.27991,19.27991,0,0,1-3.75069-3.028.77591.77591,0,0,1-.23027-.6927,31.09674,31.09674,0,0,1,2.41451-9.33692c.27479-.62936.58844-1.24165.87088-1.86782a.37552.37552,0,0,1,.47625-.25918,3.84384,3.84384,0,0,0,2.484-.43189.47243.47243,0,0,1,.55848.0247,32.96095,32.96095,0,0,0,9.31063,4.32451c1.15666.33037,2.34405.55313,3.51729.82549C66.22021,26.42741,66.30671,26.45145,66.5039,26.502Z"/><path class="b" d="M67.38889,23.64062c-.89733-.18492-1.75276-.33626-2.59576-.53928a31.04628,31.04628,0,0,1-9.69431-4.19124.34852.34852,0,0,1-.17963-.44236,4.17531,4.17531,0,0,0-.38045-3.01594.417.417,0,0,1,.05627-.38565q1.93234-1.80774,3.89558-3.58218a.42329.42329,0,0,1,.3922-.031,4.2946,4.2946,0,0,0,3.70041.417.44011.44011,0,0,1,.38022.11614,30.76105,30.76105,0,0,1,5.55,9.96818.52581.52581,0,0,1-.07793.404c-.25832.37029-.5437.72194-.82463,1.076A1.91011,1.91011,0,0,1,67.38889,23.64062Z"/><path class="b" d="M57.10979,6.62065a4.3723,4.3723,0,0,0-.11623,2.08278.3686.3686,0,0,1-.13678.28311,37.27152,37.27152,0,0,0-4.64069,4.26721.49741.49741,0,0,1-.40493.10507,4.37846,4.37846,0,0,0-2.6338.20414.43925.43925,0,0,1-.37858-.12126,30.14322,30.14322,0,0,1-3.69325-5.1459A.41073.41073,0,0,1,45.12537,7.93a19.51912,19.51912,0,0,1,5.29526-4.88234.4826.4826,0,0,1,.38264-.02367,31.42492,31.42492,0,0,1,6.08978,3.3444A1.18677,1.18677,0,0,1,57.10979,6.62065Z"/><path class="b" d="M43.908,30.05048a19.71621,19.71621,0,0,1-.66066-19.04059c.44861.643.86886,1.29581,1.34031,1.90921.68029.88513,1.39156,1.74682,2.10412,2.60649a.52992.52992,0,0,1,.11922.58773,4.10121,4.10121,0,0,0,.45515,3.64879.45246.45246,0,0,1,.0577.52575,33.26966,33.26966,0,0,0-3.349,9.61861A.66691.66691,0,0,1,43.908,30.05048Z"/><path class="b" d="M54.11608,1.24691c3.93724-2.16222,13.438-1.39064,16.81359,1.37535-.87383.22035-1.748.39677-2.59336.66409-1.33224.42125-2.64756.89686-3.964,1.3665a.53421.53421,0,0,1-.59225-.0692,4.12969,4.12969,0,0,0-4.56489-.48471.51114.51114,0,0,1-.412-.01141c-1.53769-.91318-3.06673-1.84091-4.59735-2.766A.77011.77011,0,0,1,54.11608,1.24691Z"/><path class="b" d="M72.83453,36.05452c.03882-.48835.09-.88194.098-1.27641.034-1.67209.06272-3.34439.07362-5.01673a.52945.52945,0,0,1,.31859-.57053,4.2056,4.2056,0,0,0,1.92925-2.1131.60312.60312,0,0,1,.3574-.32458c1.43922-.25959,2.883-.49375,4.32589-.73314a.58406.58406,0,0,1,.13865.01714A20.10623,20.10623,0,0,1,72.83453,36.05452Z"/></g><text class="c logo--ks__first-name" transform="translate(-0.00022 26.01913)">KEVIN </text><text class="c logo--ks__last-name" transform="translate(54.11608 26.01865)">SHELLEY</text></svg>